<svg xmlns="http://www.w3.org/2000/svg" viewBox="0 0 78.91 26.91"><defs><style>.cls-1{fill:#fff;}</style></defs><g id="レイヤー_2" data-name="レイヤー 2"><g id="レイヤー_1-2" data-name="レイヤー 1"><path class="cls-1" d="M16.12,20c0-.2-.11-.27-.31-.27H8.52a.5.5,0,0,0-.47.27L5.32,26.13c-.2.31-.35.39-.59.39H.25c-.24,0-.31-.15-.2-.39C2.24,21.45,9.73,5.85,12.53.39c.16-.23.32-.39.55-.39h7a.35.35,0,0,1,.39.39c.35,5.81.86,22.07.9,25.74,0,.24-.12.39-.35.39H16.47c-.27,0-.43-.08-.43-.39Zm-.19-4.1c.19,0,.31-.07.31-.27,0-2.07,0-8.11,0-11.11,0-.16-.12-.2-.55-.2s-.66,0-.74.2c-1.52,3-4.17,9-5.11,11.11-.07.2,0,.27.16.27Z"/><path class="cls-1" d="M32.74,5.66a.32.32,0,0,1,.35.39L31,19.07a10.87,10.87,0,0,0-.16,1.56c0,1.76.9,2.34,3.24,2.34a12,12,0,0,0,2.42-.23c.27-.08.39-.16.43-.39l2.57-16.3A.42.42,0,0,1,40,5.66h4.1a.32.32,0,0,1,.35.39L41.28,25.7c0,.24-.2.35-.47.43a34.79,34.79,0,0,1-7.18.78c-5.46,0-7.72-1.32-7.72-5.15a14.45,14.45,0,0,1,.23-2.41l2.11-13.3a.42.42,0,0,1,.43-.39Z"/><path class="cls-1" d="M55.71,9.44a.26.26,0,0,0-.28.23L53.72,20.28a9.66,9.66,0,0,0-.12,1.25c0,1.13.43,1.4,1.76,1.4h1.17c.15,0,.27,0,.27.28l-.55,2.92a.44.44,0,0,1-.35.35,8.8,8.8,0,0,1-2.77.31c-2.77,0-4.64-.78-4.64-3.35a13.59,13.59,0,0,1,.23-2.26L50.56,9.63a.19.19,0,0,0-.2-.19H47.63a.32.32,0,0,1-.35-.39l.51-3a.42.42,0,0,1,.43-.39h2.69c.16,0,.27-.08.27-.24L52,.55a.46.46,0,0,1,.47-.39h4.1a.28.28,0,0,1,.31.31V.55l-.78,4.87c0,.16,0,.24.19.24h3.28a.32.32,0,0,1,.35.39l-.51,3a.43.43,0,0,1-.43.39Z"/><path class="cls-1" d="M65,7.22c1.87-1.6,3.47-1.95,6.36-1.95,5.65,0,7.6,2.3,7.6,7.52,0,3.51-1,9.64-3.9,12.21-1.64,1.48-3.51,1.91-6.4,1.91-5.85,0-7.52-2.18-7.52-7.72C61.09,15.48,62,9.79,65,7.22Zm9.13,5.61c0-3-.28-4-3.2-4a3.23,3.23,0,0,0-2.54.9c-1.71,1.79-2.42,6.94-2.42,9.63,0,2.85.2,3.75,3.2,3.75a3.16,3.16,0,0,0,2.46-.82C73.18,20.67,74,15.6,74.08,12.83Z"/></g></g></svg>