<svg xmlns="http://www.w3.org/2000/svg" viewBox="0 0 128.51 35.69"><defs><style>.cls-1{fill:#fff;}</style></defs><g id="レイヤー_2" data-name="レイヤー 2"><g id="レイヤー_1-2" data-name="レイヤー 1"><path class="cls-1" d="M12.68,2.14c4.76,0,7.14,1.6,7.14,5.27,0,4.29-1.72,5.89-3.71,6.9-.47.24-.54.35-.54.59s.11.19.27.27a4.65,4.65,0,0,1,2.89,4.68c0,6.71-4.37,8.82-8.55,8.82H.36A.32.32,0,0,1,0,28.28L4.1,2.54a.43.43,0,0,1,.43-.4ZM8.08,25c3.43,0,5.58-.94,5.58-5.11,0-2.42-1.72-3-4.1-3H7.1c-.23,0-.35.08-.39.35L5.54,24.57c0,.23,0,.39.31.39ZM9.25,13.61c3.24,0,5.61-.58,5.61-5.15,0-1.75-.93-2.65-3.66-2.65H8.86c-.24,0-.35.08-.39.31L7.34,13.26c0,.2,0,.35.31.35Z"/><path class="cls-1" d="M25.28,11.9c-.16,0-.36,0-.39-.24l.23-3a.4.4,0,0,1,.27-.39,27,27,0,0,1,6.75-.82c4.29,0,6.75,1.33,6.75,4.84a10,10,0,0,1-.12,1.48l-2.26,14a.68.68,0,0,1-.43.55,18.65,18.65,0,0,1-6.24.78c-6.36,0-8.39-1.33-8.39-4.57a8.61,8.61,0,0,1,1.76-5.73c1.17-1.29,3.2-1.72,5.65-2l4.29-.51c.36,0,.51-.07.59-.35a13.45,13.45,0,0,0,.31-2.3c0-1.6-1.13-2.22-3.82-2.22A25,25,0,0,0,25.28,11.9Zm7.91,7.72a.22.22,0,0,0-.19-.24H30.15c-1.64,0-2.61.32-3.12,1A7.25,7.25,0,0,0,26.17,24v.15c0,1.44.94,1.72,3.94,1.72a6.33,6.33,0,0,0,2-.24.41.41,0,0,0,.24-.27Z"/><path class="cls-1" d="M49.38,29.06c-5.23,0-6.94-2.38-6.94-7,0-3.83.89-9.37,3.78-12.33a8.68,8.68,0,0,1,6.4-2.34A10.22,10.22,0,0,1,56.4,8a.23.23,0,0,1,.15.31l-.74,3.24a.22.22,0,0,1-.27.15,8.83,8.83,0,0,0-2.77-.39,3.5,3.5,0,0,0-3.2,1.33c-1.4,1.91-2.06,6.55-2.06,9s1,3.58,3.39,3.58A15.57,15.57,0,0,0,54,24.84c.16,0,.35,0,.35.16l-.31,3.16c0,.16-.08.27-.24.31A15.25,15.25,0,0,1,49.38,29.06Z"/><path class="cls-1" d="M70.05,18.45c1.13,2.18,4.13,8.5,4.6,9.87a.29.29,0,0,1-.31.35H69.89c-.27,0-.43-.08-.47-.32-.81-2.22-3-6.94-3.78-8.89-.15-.27-.27-.31-.78-.31s-.7.12-.74.43l-1.36,8.7a.43.43,0,0,1-.43.39H58.27a.32.32,0,0,1-.35-.39L62.33.39A.46.46,0,0,1,62.79,0h4.06a.3.3,0,0,1,.31.39L64.82,15.21c0,.23,0,.31.63.31a1.58,1.58,0,0,0,1-.23C68.57,12.71,70.63,10,72,8.11a.64.64,0,0,1,.62-.31h4.57c.19,0,.27.16.19.35-1.09,1.56-5.11,6.44-7,8.62a1.9,1.9,0,0,0-.54.86A1.52,1.52,0,0,0,70.05,18.45Z"/><path class="cls-1" d="M82.92,22.27a8.76,8.76,0,0,0-.16,1.52c0,1,.39,1.37,1.72,1.37h1.25c.15,0,.27,0,.27.23l-.55,2.89c0,.15-.11.23-.35.31a10.55,10.55,0,0,1-3,.31c-2.62,0-4.45-.74-4.45-3.2A14.51,14.51,0,0,1,78,23.09L81.55.39A.47.47,0,0,1,82,0h4.06c.19,0,.35.08.35.27Z"/><path class="cls-1" d="M92.86,9.36c1.87-1.6,3.47-1.95,6.36-1.95,5.66,0,7.61,2.3,7.61,7.53,0,3.51-1.06,9.63-3.91,12.2-1.63,1.49-3.5,1.92-6.39,1.92-5.85,0-7.53-2.19-7.53-7.73C89,17.63,89.9,11.93,92.86,9.36ZM102,15c0-3.05-.27-4-3.2-4a3.16,3.16,0,0,0-2.53.9c-1.72,1.79-2.42,6.94-2.42,9.63,0,2.85.19,3.74,3.2,3.74a3.09,3.09,0,0,0,2.45-.82C101.09,22.82,101.91,17.75,102,15Z"/><path class="cls-1" d="M125.35,28.39c-.94,5.81-3.55,7.3-9.17,7.3a26.6,26.6,0,0,1-7.05-.9c-.16,0-.28-.2-.24-.47l.62-2.85c.12-.31.28-.35.51-.27a27.4,27.4,0,0,0,6,.74c2.92,0,3.82-.62,4.33-2.69a13,13,0,0,0,.35-1.91c0-.08-.08-.16-.23-.16a10.27,10.27,0,0,1-2.38.2c-5.89,0-7.8-1.25-7.8-5.58,0-3.55.78-9.24,3.51-12,1.67-1.68,4-2.42,7.6-2.42,1.29,0,5.5.23,6.79.74.19.08.35.16.35.39ZM123.2,11.82c0-.24,0-.39-.23-.51a7.85,7.85,0,0,0-2.26-.23c-1.87,0-3,.31-3.71,1.36-1.24,1.83-1.91,6.75-1.91,8.93s1,2.58,3.51,2.58a6,6,0,0,0,2.42-.28.64.64,0,0,0,.39-.5Z"/></g></g></svg>