<svg xmlns="http://www.w3.org/2000/svg" viewBox="0 0 27.75 27.75"><defs><style>.cls-1{fill:#fff;}</style></defs><g id="レイヤー_2" data-name="レイヤー 2"><g id="レイヤー_1-2" data-name="レイヤー 1"><path class="cls-1" d="M27.54,1.92,25.83.21a.69.69,0,0,0-1,0L14.37,10.68a.71.71,0,0,1-1,0L2.91.21a.69.69,0,0,0-1,0L.21,1.92a.69.69,0,0,0,0,1L10.68,13.38a.71.71,0,0,1,0,1L.21,24.84a.69.69,0,0,0,0,1l1.71,1.71a.71.71,0,0,0,1,0L13.38,17.07a.71.71,0,0,1,1,0L24.84,27.54a.71.71,0,0,0,1,0l1.71-1.71a.71.71,0,0,0,0-1L17.07,14.37a.71.71,0,0,1,0-1L27.54,2.91A.71.71,0,0,0,27.54,1.92Z"/></g></g></svg>