<svg xmlns="http://www.w3.org/2000/svg" viewBox="0 0 102.06 35.69"><defs><style>.cls-1{fill:#fff;}</style></defs><g id="レイヤー_2" data-name="レイヤー 2"><g id="レイヤー_1-2" data-name="レイヤー 1"><path class="cls-1" d="M8.38,29.06C2.3,29.06,0,25.94,0,20.4,0,16.07,1.21,7.92,5.15,4.25a9.93,9.93,0,0,1,7.1-2.5,17.79,17.79,0,0,1,5.3.71c.08,0,.16.11.12.31l-.74,3.39c-.08.2-.16.28-.35.24a15.15,15.15,0,0,0-4.14-.55,4.94,4.94,0,0,0-3.9,1.52C6.36,9.79,5.3,17.16,5.3,20.28S6.47,24.8,9.71,24.8a17.52,17.52,0,0,0,4.37-.5c.16,0,.31,0,.31.19l-.27,3.32a.57.57,0,0,1-.27.47A18.54,18.54,0,0,1,8.38,29.06Z"/><path class="cls-1" d="M21.68,9.36c1.88-1.6,3.48-1.95,6.36-1.95,5.66,0,7.61,2.3,7.61,7.53,0,3.51-1.06,9.63-3.9,12.2-1.64,1.49-3.51,1.92-6.4,1.92-5.85,0-7.53-2.19-7.53-7.73C17.82,17.63,18.72,11.93,21.68,9.36ZM30.81,15c0-3.05-.27-4-3.2-4a3.16,3.16,0,0,0-2.53.9c-1.72,1.79-2.42,6.94-2.42,9.63,0,2.85.19,3.74,3.2,3.74a3.09,3.09,0,0,0,2.45-.82C29.91,22.82,30.73,17.75,30.81,15Z"/><path class="cls-1" d="M50.15,28.67a.32.32,0,0,1-.35-.39L52,15a12.84,12.84,0,0,0,.15-1.56c0-1.72-.78-2.23-3.31-2.23a10.39,10.39,0,0,0-2.38.24c-.27.07-.43.15-.47.43L43.37,28.28a.43.43,0,0,1-.43.39h-4.1a.32.32,0,0,1-.35-.39L41.61,8.62c0-.24.16-.31.43-.39a41.09,41.09,0,0,1,7.49-.82c5.38,0,7.53,1.21,7.53,4.84a15.82,15.82,0,0,1-.24,2.61L54.68,28.28a.43.43,0,0,1-.43.39Z"/><path class="cls-1" d="M72.77,28.67a.32.32,0,0,1-.35-.39L75,11.82c0-.2-.12-.24-.28-.24h-6c-.15,0-.23.08-.27.24L65.91,28.28a.43.43,0,0,1-.43.39h-4a.32.32,0,0,1-.35-.39l2.62-16.46c0-.16,0-.24-.2-.24H60.88c-.24,0-.35-.15-.31-.39l.46-3a.43.43,0,0,1,.43-.39H64c.15,0,.27-.08.27-.23l.27-1.68C65.21,2.14,67.27,0,75,0a54.21,54.21,0,0,1,5.77.35c.23,0,.27.2.23.43L80.5,3.51c0,.27-.28.27-.55.23a45.36,45.36,0,0,0-5.07-.31c-3.55,0-5.23.35-5.58,2.73l-.19,1.41c0,.15,0,.23.19.23H80.18a.33.33,0,0,1,.36.39l-3.2,20.09a.43.43,0,0,1-.43.39Z"/><path class="cls-1" d="M98.9,28.39c-.93,5.81-3.55,7.3-9.16,7.3a26.67,26.67,0,0,1-7.06-.9c-.16,0-.27-.2-.24-.47l.63-2.85c.12-.31.27-.35.51-.27a27.22,27.22,0,0,0,6,.74c2.93,0,3.83-.62,4.33-2.69a13,13,0,0,0,.35-1.91c0-.08-.08-.16-.23-.16a10.09,10.09,0,0,1-2.38.2c-5.89,0-7.8-1.25-7.8-5.58,0-3.55.78-9.24,3.51-12,1.68-1.68,4-2.42,7.6-2.42,1.29,0,5.5.23,6.79.74.2.08.35.16.35.39ZM96.76,11.82c0-.24,0-.39-.24-.51a7.8,7.8,0,0,0-2.26-.23c-1.87,0-3,.31-3.7,1.36-1.25,1.83-1.91,6.75-1.91,8.93s1,2.58,3.51,2.58a6,6,0,0,0,2.41-.28.62.62,0,0,0,.39-.5Z"/></g></g></svg>