<svg xmlns="http://www.w3.org/2000/svg" viewBox="0 0 76.33 29.06"><defs><style>.cls-1{fill:#fff;}</style></defs><g id="レイヤー_2" data-name="レイヤー 2"><g id="レイヤー_1-2" data-name="レイヤー 1"><path class="cls-1" d="M4.1,2.54a.43.43,0,0,1,.43-.4H8.78a.33.33,0,0,1,.35.4L5.62,24.26c0,.16,0,.23.2.23h6.43a.32.32,0,0,1,.35.39l-.54,3.4a.43.43,0,0,1-.43.39H.36A.32.32,0,0,1,0,28.28Z"/><path class="cls-1" d="M19.7,9.36c1.87-1.6,3.47-1.95,6.36-1.95,5.65,0,7.6,2.3,7.6,7.53,0,3.51-1,9.63-3.9,12.2-1.63,1.49-3.51,1.92-6.39,1.92-5.85,0-7.53-2.19-7.53-7.73C15.84,17.63,16.74,11.93,19.7,9.36ZM28.83,15c0-3.05-.28-4-3.2-4a3.2,3.2,0,0,0-2.54.9c-1.71,1.79-2.41,6.94-2.41,9.63,0,2.85.19,3.74,3.19,3.74a3.11,3.11,0,0,0,2.46-.82C27.93,22.82,28.75,17.75,28.83,15Z"/><path class="cls-1" d="M39.82,11.9a.3.3,0,0,1-.39-.24l.24-3a.39.39,0,0,1,.27-.39,27,27,0,0,1,6.75-.82c4.29,0,6.75,1.33,6.75,4.84a10,10,0,0,1-.12,1.48l-2.26,14a.68.68,0,0,1-.43.55,18.69,18.69,0,0,1-6.24.78C38,29.06,36,27.73,36,24.49a8.61,8.61,0,0,1,1.76-5.73c1.17-1.29,3.2-1.72,5.65-2l4.29-.51c.35,0,.51-.07.59-.35a13.45,13.45,0,0,0,.31-2.3c0-1.6-1.13-2.22-3.82-2.22A25.13,25.13,0,0,0,39.82,11.9Zm7.92,7.72c0-.12-.08-.24-.19-.24H44.7c-1.64,0-2.61.32-3.12,1A7.14,7.14,0,0,0,40.72,24v.15c0,1.44.94,1.72,3.94,1.72a6.36,6.36,0,0,0,2-.24.39.39,0,0,0,.23-.27Z"/><path class="cls-1" d="M56.75,22.5c0-4.68,1.17-10.45,4.25-13.22C62.41,8,64.35,7.49,66.89,7.49c1.83,0,2.65.19,3.12.19.27,0,.35-.07.39-.27l1.09-7A.47.47,0,0,1,72,0H76a.29.29,0,0,1,.31.31V.39L72,28c0,.24-.16.32-.39.39a27.11,27.11,0,0,1-6.67.71C58.43,29.06,56.75,27.07,56.75,22.5ZM69.66,11.93c0-.15,0-.39-.16-.5a5.36,5.36,0,0,0-2.18-.31,4.71,4.71,0,0,0-3,.78C62.44,13.3,61.59,19,61.59,22c0,2.49.74,3.31,3.7,3.31a9.05,9.05,0,0,0,2.07-.19c.19,0,.27-.24.31-.43Z"/></g></g></svg>