<svg xmlns="http://www.w3.org/2000/svg" viewBox="0 0 24.3 29.49"><defs><style>.cls-1{fill:#fff;}</style></defs><g id="レイヤー_2" data-name="レイヤー 2"><g id="レイヤー_1-2" data-name="レイヤー 1"><path class="cls-1" d="M20.44,12.17V8.59A8.48,8.48,0,0,0,12.72,0,8.3,8.3,0,0,0,3.86,8.29v3.88a.7.7,0,0,1-.7.7H.7a.7.7,0,0,0-.7.7V28.79a.7.7,0,0,0,.7.7H23.6a.7.7,0,0,0,.7-.7V13.57a.7.7,0,0,0-.7-.7H21.14A.7.7,0,0,1,20.44,12.17ZM7.71,8.29a4.44,4.44,0,0,1,4.88-4.41,4.56,4.56,0,0,1,4,4.61v3.68a.7.7,0,0,1-.7.7H8.41a.7.7,0,0,1-.7-.7Zm5.57,14.62v2.84a.7.7,0,0,1-.7.7h-.86a.7.7,0,0,1-.7-.7V22.91a3.31,3.31,0,1,1,2.26,0Z"/></g></g></svg>