<svg xmlns="http://www.w3.org/2000/svg" viewBox="0 0 75.6 27.3"><defs><style>.cls-1{fill:#fff;}</style></defs><g id="レイヤー_2" data-name="レイヤー 2"><g id="レイヤー_1-2" data-name="レイヤー 1"><path class="cls-1" d="M7.78,7.68C7.78,9,9,10.1,11.68,12.4s3.86,4.18,3.86,6.59c0,6.05-3.43,8.31-8.89,8.31a23.74,23.74,0,0,1-6.52-.78C0,26.44,0,26.33,0,26.13l.78-3.55c0-.12.12-.23.36-.19a24.79,24.79,0,0,0,5.22.66c2.5,0,3.86-.74,3.86-3.67,0-1.4-.78-2.41-3.66-4.79S2.43,10.41,2.43,8.35c0-6,2.69-8.35,9.05-8.35A24.59,24.59,0,0,1,17,.62a.29.29,0,0,1,.23.36l-.74,3.43c0,.15-.15.19-.31.15a29.38,29.38,0,0,0-4.48-.39C8.67,4.17,7.78,5,7.78,7.68Z"/><path class="cls-1" d="M22.21,10.14a.28.28,0,0,1-.39-.23l.23-3a.41.41,0,0,1,.27-.39,27.44,27.44,0,0,1,6.75-.81c4.29,0,6.75,1.32,6.75,4.83A9.92,9.92,0,0,1,35.7,12L33.44,26a.66.66,0,0,1-.43.54,18.39,18.39,0,0,1-6.24.78c-6.36,0-8.39-1.32-8.39-4.56A8.64,8.64,0,0,1,20.14,17c1.17-1.28,3.2-1.71,5.65-2l4.29-.51c.35,0,.51-.08.59-.35a13.45,13.45,0,0,0,.31-2.3c0-1.6-1.13-2.23-3.82-2.23A25.8,25.8,0,0,0,22.21,10.14Zm7.91,7.72a.22.22,0,0,0-.19-.23H27.08c-1.64,0-2.61.31-3.12,1a7.25,7.25,0,0,0-.86,3.59v.16c0,1.44.94,1.71,3.94,1.71A6.64,6.64,0,0,0,29,23.87a.43.43,0,0,0,.24-.27Z"/><path class="cls-1" d="M48.18,26.91H41.51a.42.42,0,0,1-.31-.35C40.69,22.15,40.07,9,40,6.4c0-.24.12-.36.39-.36H44.9c.24,0,.28.16.28.36-.08,4.95,0,11.77.19,16.14,0,.2.16.24.51.24s.51,0,.58-.24c1.72-3.82,4.72-11.19,6.48-16.14A.54.54,0,0,1,53.48,6h4.37c.24,0,.27.2.27.4C57.34,9,51.18,22.58,49,26.56,48.84,26.79,48.69,26.91,48.18,26.91Z"/><path class="cls-1" d="M58.51,19.74c0-3.4,1.06-9.44,4.06-12.13a8.72,8.72,0,0,1,6.05-1.95c5.57,0,7,2.37,7,6.31a18.22,18.22,0,0,1-.55,4c-.43,1.68-.78,1.84-2.18,1.84l-9.21.27c-.12,0-.27,0-.31.23a9.85,9.85,0,0,0-.16,1.91c0,2.34,1.25,3.4,4.57,3.4a14.76,14.76,0,0,0,4.83-.75c.2-.07.47,0,.47.2l-.15,2.85a.46.46,0,0,1-.32.47,17,17,0,0,1-5.85.93C60.5,27.3,58.51,24.49,58.51,19.74Zm12-4.84a.5.5,0,0,0,.47-.35,13,13,0,0,0,.35-2.62c0-1.71-.43-2.84-3-2.84a3.29,3.29,0,0,0-2.77,1.09,9.8,9.8,0,0,0-1.67,4.49.24.24,0,0,0,.23.23Z"/></g></g></svg>