<svg xmlns="http://www.w3.org/2000/svg" viewBox="0 0 67.37 35.92"><defs><style>.cls-1{fill:#fff;}</style></defs><g id="レイヤー_2" data-name="レイヤー 2"><g id="レイヤー_1-2" data-name="レイヤー 1"><path class="cls-1" d="M7.78,9.67c0,1.29,1.17,2.42,3.9,4.72s3.86,4.18,3.86,6.59c0,6.05-3.43,8.31-8.89,8.31a23.74,23.74,0,0,1-6.52-.78C0,28.43,0,28.32,0,28.12l.78-3.55c0-.12.12-.23.36-.19A24.79,24.79,0,0,0,6.37,25c2.5,0,3.86-.74,3.86-3.67,0-1.4-.78-2.41-3.66-4.79S2.43,12.4,2.43,10.34c0-6,2.69-8.35,9.05-8.35A24.59,24.59,0,0,1,17,2.61a.28.28,0,0,1,.23.35L16.51,6.4c0,.15-.15.19-.31.15a29.38,29.38,0,0,0-4.48-.39C8.67,6.16,7.78,7,7.78,9.67Z"/><path class="cls-1" d="M31.1,18.68c1.13,2.19,4.13,8.5,4.6,9.87a.29.29,0,0,1-.31.35H30.94c-.27,0-.43-.08-.47-.31-.81-2.22-3-6.94-3.78-8.89-.15-.28-.27-.32-.78-.32s-.7.12-.74.43l-1.37,8.7a.42.42,0,0,1-.42.39H19.32a.32.32,0,0,1-.35-.39L23.38.62a.46.46,0,0,1,.46-.39H27.9a.3.3,0,0,1,.31.39L25.87,15.45c0,.23,0,.31.63.31a1.54,1.54,0,0,0,1-.24C29.62,13,31.68,10.18,33,8.35A.63.63,0,0,1,33.63,8H38.2c.19,0,.27.16.19.36-1.09,1.56-5.11,6.43-7,8.61a2,2,0,0,0-.54.86A1.49,1.49,0,0,0,31.1,18.68Z"/><path class="cls-1" d="M38.86,28.9a.32.32,0,0,1-.35-.39l3.2-20.09A.42.42,0,0,1,42.13,8h4.1a.32.32,0,0,1,.35.39l-3.2,20.09a.43.43,0,0,1-.43.39ZM42.6,4.56a.3.3,0,0,1-.31-.39L42.88.39A.45.45,0,0,1,43.34,0h4.29A.32.32,0,0,1,48,.39L47.4,4.17a.46.46,0,0,1-.47.39Z"/><path class="cls-1" d="M67.37,14.27c0,3.16-.82,9-3.12,11.86C62.73,28,60.5,28.9,56.84,28.9c-.9,0-2.34-.08-2.81-.08-.24,0-.31.08-.35.31l-1,6.4a.47.47,0,0,1-.47.39h-4a.28.28,0,0,1-.31-.31v-.08L52.08,8.81c0-.31.15-.42.66-.5a35,35,0,0,1,6.32-.67C65.46,7.64,67.37,9.56,67.37,14.27Zm-12.91,10c0,.27-.08.59-.08.7s.08.35.31.39a12.56,12.56,0,0,0,2.3.12,3.89,3.89,0,0,0,3.12-1.05c1.6-1.68,2.38-7.26,2.38-9.75,0-2.66-1-3.36-4.13-3.36a4.12,4.12,0,0,0-1.56.2c-.31.11-.39.31-.43.62Z"/></g></g></svg>